<svg width="1954" height="631" viewBox="0 0 1954 631" fill="none" xmlns="http://www.w3.org/2000/svg">
<path d="M272.5 0L464.5 142.5C413.7 132.1 372.667 153.5 358.5 165.5L262 248.5V263L256 267.5L246.5 268.5L236 279V285L240 295L230.5 305.5C226.5 308.7 222.833 306.833 221.5 305.5L126.5 213C124.1 210.2 121.5 211.833 120.5 213L66 266.5C62 270.427 64.3333 274.136 66 275.5L80.5 291.5C83.7 294.3 81.8333 298.333 80.5 300L72 307.5C67.2 311.9 68.6667 317.333 70 319.5L224.5 466.5C227.3 469.164 230.333 467.61 231.5 466.5L239.5 459L243 462.5C245 464.5 247.5 463 248.5 462L265.5 445C267.9 443 267.5 441.167 267 440.5L263 436L270.5 428.5C274.1 424.9 271.333 420 269.5 418L119.5 270.5C116.7 266.5 113 267.167 111.5 268C107.833 271.667 99.5067 279.493 96.5 282.5C93.5 285.5 89.5 284.5 87.5 282.5L79.5 274C76.7 270.8 78.3333 267.333 79.5 266L119.5 227C123.5 222.2 127.5 225 129 227L221.5 317.5C225.18 321.1 230.033 319 232 317.5L248 302L257.5 305.5H264.5L275 295L276 285.5L282 278.5L287 277.5L291 274C447.8 146 534.333 208.333 558 255.5V631H198.5C251.3 620.6 299.5 583 317 565.5L389.5 489.5C456.3 411.1 491.667 486.5 501 534C525.4 471.6 500.167 424 484.5 408L425.5 347C368.3 364.6 369 323.667 376.5 301L347.5 274L264 358.5L262 360.5L293.5 391.5C326.5 362 364 410 340 436L289 486.5C160.6 610.1 51.8333 557 13.5 515L0 214.5L272.5 0Z" fill="url(#paint0_linear_298_2)"/>
<path d="M626.753 282.183C621.455 282.183 618.806 279.887 618.806 275.295V261.945C618.806 257.353 621.455 255.058 626.753 255.058H735.677C740.974 255.058 743.623 257.353 743.623 261.945V275.295C743.623 279.887 740.974 282.183 735.677 282.183H696.684V401.172C696.684 405.057 694.918 407 691.386 407H671.043C667.511 407 665.745 405.057 665.745 401.172V282.183H626.753ZM749.654 407C744.568 407 742.908 404.669 744.674 400.007L796.593 263.64C798.783 257.918 802.103 255.058 806.553 255.058H821.387C825.837 255.058 829.157 257.918 831.347 263.64L883.266 400.007C885.032 404.669 883.372 407 878.286 407H861.439C856.777 407 853.528 404.563 851.691 399.689L840.883 371.187H787.057L776.25 399.689C774.413 404.563 771.164 407 766.502 407H749.654ZM796.911 344.909H831.029L817.997 311.215C816.443 307.259 815.489 304.398 815.136 302.632C814.853 300.796 814.535 298.111 814.182 294.58H813.758C813.405 298.111 813.052 300.796 812.699 302.632C812.416 304.398 811.498 307.259 809.944 311.215L796.911 344.909ZM912.608 395.663C908.228 392.343 907.169 388.987 909.429 385.597L917.588 373.306C920.272 369.279 924.192 369.067 929.349 372.67C933.305 375.425 938.461 378.286 944.819 381.252C951.247 384.149 957.993 385.597 965.057 385.597C970.001 385.597 974.769 385.032 979.361 383.901C983.952 382.771 987.449 380.581 989.85 377.332C992.252 374.083 993.453 370.233 993.453 365.783C993.453 362.604 992.923 359.814 991.864 357.412C990.804 355.01 989.073 353.033 986.672 351.479C984.27 349.924 981.798 348.618 979.255 347.558C974.805 345.722 969.189 343.92 962.408 342.154C955.697 340.318 949.057 338.128 942.488 335.585C936.625 333.325 931.256 330.216 926.382 326.261C921.508 322.305 917.729 317.855 915.045 312.91C912.361 307.965 911.018 301.361 911.018 293.096C911.018 283.278 914.197 274.872 920.555 267.878C926.912 260.885 934.223 256.4 942.488 254.422C950.752 252.444 959.088 251.455 967.494 251.455C975.829 251.455 984.411 252.727 993.241 255.27C1002.14 257.812 1008.85 260.991 1013.37 264.806C1017.82 268.549 1018.92 271.94 1016.66 274.978L1008.08 286.527C1005.18 290.483 1001.29 290.8 996.42 287.48C993.312 285.361 989.038 282.995 983.599 280.381C978.231 277.768 972.615 276.461 966.752 276.461C962.584 276.461 958.734 276.814 955.203 277.521C951.741 278.227 948.668 279.922 945.984 282.606C943.3 285.291 941.958 288.611 941.958 292.566C941.958 296.381 942.947 299.489 944.925 301.891C946.903 304.222 949.092 305.988 951.494 307.188C953.896 308.319 956.333 309.272 958.805 310.049C966.434 312.522 973.251 314.711 979.255 316.619C985.259 318.455 990.804 320.504 995.89 322.764C1002.95 325.943 1008.36 329.122 1012.1 332.3C1015.85 335.479 1018.92 339.823 1021.32 345.333C1023.79 350.843 1025.03 357.412 1025.03 365.041C1025.03 376.343 1021.43 385.703 1014.22 393.12C1007.02 400.466 998.998 405.199 990.168 407.318C981.409 409.508 972.862 410.603 964.527 410.603C952.236 410.603 942.24 409.402 934.541 407C926.841 404.669 919.53 400.89 912.608 395.663ZM1065.5 407C1060.55 407 1058.08 404.351 1058.08 399.053V263.004C1058.08 257.707 1060.55 255.058 1065.5 255.058H1081.6C1086.55 255.058 1089.02 257.707 1089.02 263.004V305.175C1089.02 309.414 1088.84 313.652 1088.49 317.89H1089.23L1140.72 261.309C1144.54 257.141 1147.79 255.058 1150.47 255.058H1171.77C1180.03 255.058 1181.38 258.095 1175.8 264.17L1127.59 316.937L1179.19 397.888C1183.07 403.963 1181.73 407 1175.16 407H1155.35C1151.67 407 1148.5 404.916 1145.81 400.749L1106.82 339.611L1089.02 359.637V399.053C1089.02 404.351 1086.55 407 1081.6 407H1065.5ZM1203.23 331.029C1203.23 306.659 1209.41 287.304 1221.77 272.964C1234.14 258.625 1251.97 251.455 1275.28 251.455C1288.7 251.455 1300.08 253.539 1309.4 257.707C1318.72 261.874 1325.29 267.914 1329.11 275.825C1331.65 281.052 1331.23 284.584 1327.84 286.421L1315.12 293.202C1310.67 295.604 1307 294.262 1304.1 289.176C1302.27 285.926 1298.84 282.995 1293.82 280.381C1288.88 277.768 1283.05 276.461 1276.34 276.461C1261.51 276.461 1251.12 281.158 1245.19 290.553C1239.26 299.877 1236.29 313.369 1236.29 331.029C1236.29 348.688 1239.26 362.215 1245.19 371.61C1251.12 380.935 1261.51 385.597 1276.34 385.597C1284.32 385.597 1291.03 383.795 1296.47 380.193C1301.98 376.59 1305.8 373.164 1307.92 369.915C1311.38 364.617 1315.05 363.275 1318.94 365.889L1331.65 374.365C1335.11 376.696 1335.47 380.228 1332.71 384.961C1328.61 392.025 1321.58 398.064 1311.62 403.08C1301.67 408.095 1289.55 410.603 1275.28 410.603C1252.32 410.603 1234.56 403.433 1221.99 389.093C1209.48 374.754 1203.23 355.399 1203.23 331.029ZM1377.42 407C1372.47 407 1370 404.351 1370 399.053V263.004C1370 257.707 1372.47 255.058 1377.42 255.058H1393.52C1398.47 255.058 1400.94 257.707 1400.94 263.004V314.817H1457.94V263.004C1457.94 257.707 1460.42 255.058 1465.36 255.058H1481.47C1486.41 255.058 1488.88 257.707 1488.88 263.004V399.053C1488.88 404.351 1486.41 407 1481.47 407H1465.36C1460.42 407 1457.94 404.351 1457.94 399.053V341.095H1400.94V399.053C1400.94 404.351 1398.47 407 1393.52 407H1377.42ZM1526.7 407C1521.61 407 1519.95 404.669 1521.72 400.007L1573.64 263.64C1575.83 257.918 1579.15 255.058 1583.6 255.058H1598.43C1602.88 255.058 1606.2 257.918 1608.39 263.64L1660.31 400.007C1662.08 404.669 1660.42 407 1655.33 407H1638.49C1633.82 407 1630.57 404.563 1628.74 399.689L1617.93 371.187H1564.1L1553.3 399.689C1551.46 404.563 1548.21 407 1543.55 407H1526.7ZM1573.96 344.909H1608.08L1595.04 311.215C1593.49 307.259 1592.54 304.398 1592.18 302.632C1591.9 300.796 1591.58 298.111 1591.23 294.58H1590.8C1590.45 298.111 1590.1 300.796 1589.75 302.632C1589.46 304.398 1588.54 307.259 1586.99 311.215L1573.96 344.909ZM1689.65 395.663C1685.27 392.343 1684.22 388.987 1686.48 385.597L1694.63 373.306C1697.32 369.279 1701.24 369.067 1706.4 372.67C1710.35 375.425 1715.51 378.286 1721.87 381.252C1728.29 384.149 1735.04 385.597 1742.1 385.597C1747.05 385.597 1751.82 385.032 1756.41 383.901C1761 382.771 1764.5 380.581 1766.9 377.332C1769.3 374.083 1770.5 370.233 1770.5 365.783C1770.5 362.604 1769.97 359.814 1768.91 357.412C1767.85 355.01 1766.12 353.033 1763.72 351.479C1761.32 349.924 1758.84 348.618 1756.3 347.558C1751.85 345.722 1746.24 343.92 1739.45 342.154C1732.74 340.318 1726.1 338.128 1719.53 335.585C1713.67 333.325 1708.3 330.216 1703.43 326.261C1698.55 322.305 1694.78 317.855 1692.09 312.91C1689.41 307.965 1688.06 301.361 1688.06 293.096C1688.06 283.278 1691.24 274.872 1697.6 267.878C1703.96 260.885 1711.27 256.4 1719.53 254.422C1727.8 252.444 1736.13 251.455 1744.54 251.455C1752.88 251.455 1761.46 252.727 1770.29 255.27C1779.19 257.812 1785.9 260.991 1790.42 264.806C1794.87 268.549 1795.96 271.94 1793.7 274.978L1785.12 286.527C1782.23 290.483 1778.34 290.8 1773.47 287.48C1770.36 285.361 1766.08 282.995 1760.65 280.381C1755.28 277.768 1749.66 276.461 1743.8 276.461C1739.63 276.461 1735.78 276.814 1732.25 277.521C1728.79 278.227 1725.72 279.922 1723.03 282.606C1720.35 285.291 1719 288.611 1719 292.566C1719 296.381 1719.99 299.489 1721.97 301.891C1723.95 304.222 1726.14 305.988 1728.54 307.188C1730.94 308.319 1733.38 309.272 1735.85 310.049C1743.48 312.522 1750.3 314.711 1756.3 316.619C1762.31 318.455 1767.85 320.504 1772.94 322.764C1780 325.943 1785.4 329.122 1789.15 332.3C1792.89 335.479 1795.96 339.823 1798.37 345.333C1800.84 350.843 1802.07 357.412 1802.07 365.041C1802.07 376.343 1798.47 385.703 1791.27 393.12C1784.06 400.466 1776.04 405.199 1767.21 407.318C1758.46 409.508 1749.91 410.603 1741.57 410.603C1729.28 410.603 1719.29 409.402 1711.59 407C1703.89 404.669 1696.58 400.89 1689.65 395.663ZM1842.54 407C1837.6 407 1835.12 404.351 1835.12 399.053V263.004C1835.12 257.707 1837.6 255.058 1842.54 255.058H1933.45C1938.75 255.058 1941.4 257.353 1941.4 261.945V274.448C1941.4 279.039 1938.75 281.335 1933.45 281.335H1866.06V315.029H1927.84C1933.14 315.029 1935.78 317.325 1935.78 321.917V334.419C1935.78 339.011 1933.14 341.307 1927.84 341.307H1866.06V380.723H1936.84C1942.14 380.723 1944.79 383.018 1944.79 387.61V400.113C1944.79 404.704 1942.14 407 1936.84 407H1842.54Z" fill="black"/>
<path d="M617.772 512.994C617.772 506.158 619.54 500.807 623.075 496.939C626.61 493.053 631.522 491.109 637.811 491.109C641.581 491.109 644.657 491.764 647.04 493.072C649.423 494.361 651.171 495.885 652.284 497.643C652.968 498.736 652.958 499.527 652.255 500.016L650.057 501.539C649.335 502.047 648.612 501.744 647.889 500.631C647.304 499.752 646.2 498.707 644.579 497.496C642.958 496.285 640.8 495.68 638.104 495.68C633.319 495.68 629.735 497.203 627.352 500.25C624.97 503.277 623.778 507.525 623.778 512.994C623.778 518.463 624.94 522.721 627.264 525.768C629.589 528.795 633.3 530.309 638.397 530.309C640.936 530.309 643.143 530.006 645.018 529.4C646.913 528.775 648.241 527.916 649.003 526.822V519.059H640.302C639.227 519.059 638.69 518.619 638.69 517.74V515.572C638.69 514.693 639.227 514.254 640.302 514.254H653.016C654.091 514.254 654.628 514.693 654.628 515.572V529.4C652.245 531.139 649.862 532.486 647.479 533.443C645.096 534.4 641.971 534.879 638.104 534.879C631.659 534.879 626.659 532.945 623.104 529.078C619.55 525.191 617.772 519.83 617.772 512.994ZM720.989 534C720.012 534 719.524 533.463 719.524 532.389V493.6C719.524 492.525 720.012 491.988 720.989 491.988H746.623C747.698 491.988 748.235 492.428 748.235 493.307V495.475C748.235 496.354 747.698 496.793 746.623 496.793H725.149V509.801H744.866C745.94 509.801 746.477 510.24 746.477 511.119V513.287C746.477 514.166 745.94 514.605 744.866 514.605H725.149V529.195H747.502C748.577 529.195 749.114 529.635 749.114 530.514V532.682C749.114 533.561 748.577 534 747.502 534H720.989ZM810.816 497.027C809.742 497.027 809.205 496.588 809.205 495.709V493.307C809.205 492.428 809.742 491.988 810.816 491.988H841.813C842.887 491.988 843.424 492.428 843.424 493.307V495.709C843.424 496.588 842.887 497.027 841.813 497.027H829.127V532.389C829.127 533.463 828.639 534 827.662 534H824.967C823.99 534 823.502 533.463 823.502 532.389V497.027H810.816ZM979.925 497.027C978.851 497.027 978.314 496.588 978.314 495.709V493.307C978.314 492.428 978.851 491.988 979.925 491.988H1010.92C1012 491.988 1012.53 492.428 1012.53 493.307V495.709C1012.53 496.588 1012 497.027 1010.92 497.027H998.236V532.389C998.236 533.463 997.747 534 996.771 534H994.075C993.099 534 992.611 533.463 992.611 532.389V497.027H979.925ZM1076.43 534C1075.46 534 1074.97 533.463 1074.97 532.389V493.6C1074.97 492.525 1075.46 491.988 1076.43 491.988H1079.13C1080.1 491.988 1080.59 492.525 1080.59 493.6V509.742H1101.04V493.6C1101.04 492.525 1101.53 491.988 1102.51 491.988H1105.2C1106.18 491.988 1106.67 492.525 1106.67 493.6V532.389C1106.67 533.463 1106.18 534 1105.2 534H1102.51C1101.53 534 1101.04 533.463 1101.04 532.389V514.547H1080.59V532.389C1080.59 533.463 1080.1 534 1079.13 534H1076.43ZM1174.49 534C1173.52 534 1173.03 533.463 1173.03 532.389V493.6C1173.03 492.525 1173.52 491.988 1174.49 491.988H1177.19C1178.16 491.988 1178.65 492.525 1178.65 493.6V532.389C1178.65 533.463 1178.16 534 1177.19 534H1174.49ZM1246.48 534C1245.5 534 1245.01 533.463 1245.01 532.389V493.6C1245.01 492.525 1245.5 491.988 1246.48 491.988H1250.23C1251.6 491.988 1252.57 492.477 1253.16 493.453L1271.5 524.186H1271.62C1271.58 523.404 1271.56 522.623 1271.56 521.842V493.6C1271.56 492.525 1272.04 491.988 1273.02 491.988H1275.72C1276.69 491.988 1277.18 492.525 1277.18 493.6V532.389C1277.18 533.463 1276.69 534 1275.72 534H1273.14C1271.77 534 1270.79 533.512 1270.21 532.535L1250.7 499.928H1250.58C1250.62 500.709 1250.64 501.49 1250.64 502.271V532.389C1250.64 533.463 1250.15 534 1249.17 534H1246.48ZM1341.26 512.994C1341.26 506.158 1343.03 500.807 1346.56 496.939C1350.1 493.053 1355.01 491.109 1361.3 491.109C1365.07 491.109 1368.14 491.764 1370.53 493.072C1372.91 494.361 1374.66 495.885 1375.77 497.643C1376.45 498.736 1376.44 499.527 1375.74 500.016L1373.54 501.539C1372.82 502.047 1372.1 501.744 1371.37 500.631C1370.79 499.752 1369.69 498.707 1368.06 497.496C1366.44 496.285 1364.28 495.68 1361.59 495.68C1356.8 495.68 1353.22 497.203 1350.84 500.25C1348.45 503.277 1347.26 507.525 1347.26 512.994C1347.26 518.463 1348.43 522.721 1350.75 525.768C1353.07 528.795 1356.78 530.309 1361.88 530.309C1364.42 530.309 1366.63 530.006 1368.5 529.4C1370.4 528.775 1371.73 527.916 1372.49 526.822V519.059H1363.79C1362.71 519.059 1362.18 518.619 1362.18 517.74V515.572C1362.18 514.693 1362.71 514.254 1363.79 514.254H1376.5C1377.58 514.254 1378.11 514.693 1378.11 515.572V529.4C1375.73 531.139 1373.35 532.486 1370.96 533.443C1368.58 534.4 1365.46 534.879 1361.59 534.879C1355.14 534.879 1350.14 532.945 1346.59 529.078C1343.03 525.191 1341.26 519.83 1341.26 512.994ZM1442.89 530.836C1441.86 529.898 1441.58 529.078 1442.07 528.375L1443.59 526.178C1444.12 525.416 1444.97 525.475 1446.14 526.354C1447.69 527.506 1449.29 528.453 1450.95 529.195C1452.63 529.938 1454.66 530.309 1457.04 530.309C1458.8 530.309 1460.28 530.045 1461.5 529.518C1462.71 528.99 1463.67 528.238 1464.4 527.262C1465.14 526.266 1465.51 525.064 1465.51 523.658C1465.51 522.643 1465.35 521.705 1465.04 520.846C1464.75 519.967 1464.27 519.234 1463.6 518.648C1462.94 518.062 1462.25 517.604 1461.52 517.271C1460.33 516.725 1458.55 516.09 1456.16 515.367C1453.8 514.645 1451.73 513.863 1449.95 513.023C1448.19 512.184 1446.79 511.168 1445.73 509.977C1444.7 508.785 1444.01 507.564 1443.65 506.314C1443.32 505.045 1443.16 503.6 1443.16 501.979C1443.16 499.498 1443.88 497.359 1445.32 495.562C1446.77 493.766 1448.54 492.574 1450.63 491.988C1452.74 491.402 1454.87 491.109 1457.04 491.109C1459.52 491.109 1461.68 491.432 1463.52 492.076C1465.35 492.721 1466.99 493.561 1468.44 494.596C1469.45 495.318 1469.69 496.08 1469.14 496.881L1467.65 499.02C1467.2 499.664 1466.32 499.527 1465.01 498.609C1464.01 497.906 1462.79 497.252 1461.35 496.646C1459.92 496.021 1458.51 495.709 1457.1 495.709C1455.3 495.709 1453.81 495.924 1452.62 496.354C1451.43 496.764 1450.49 497.467 1449.81 498.463C1449.12 499.459 1448.78 500.611 1448.78 501.92C1448.78 502.74 1448.86 503.502 1449.01 504.205C1449.17 504.889 1449.57 505.592 1450.22 506.314C1450.86 507.037 1451.64 507.594 1452.56 507.984C1453.79 508.512 1455.69 509.137 1458.27 509.859C1460.87 510.562 1463.14 511.432 1465.07 512.467C1466.87 513.424 1468.16 514.43 1468.94 515.484C1469.74 516.52 1470.35 517.652 1470.78 518.883C1471.23 520.094 1471.46 521.461 1471.46 522.984C1471.46 525.758 1470.74 528.072 1469.32 529.928C1467.89 531.783 1466.2 533.072 1464.25 533.795C1462.3 534.518 1459.84 534.879 1456.9 534.879C1453.36 534.879 1450.43 534.469 1448.11 533.648C1445.78 532.828 1444.04 531.891 1442.89 530.836ZM1613.11 534C1612.14 534 1611.65 533.463 1611.65 532.389V493.6C1611.65 492.525 1612.14 491.988 1613.11 491.988H1623.92C1632.21 491.988 1637.96 493.824 1641.18 497.496C1644.42 501.148 1646.04 506.295 1646.04 512.936C1646.04 519.576 1644.42 524.752 1641.18 528.463C1637.96 532.154 1632.21 534 1623.92 534H1613.11ZM1617.27 529.195H1623.66C1630.11 529.195 1634.44 527.828 1636.67 525.094C1638.91 522.359 1640.04 518.307 1640.04 512.936C1640.04 507.564 1638.91 503.521 1636.67 500.807C1634.44 498.092 1630.11 496.734 1623.66 496.734H1617.27V529.195ZM1707.83 512.994C1707.83 506.158 1709.51 500.807 1712.87 496.939C1716.25 493.053 1721.12 491.109 1727.46 491.109C1733.81 491.109 1738.66 493.053 1742.02 496.939C1745.4 500.807 1747.09 506.158 1747.09 512.994C1747.09 519.83 1745.4 525.191 1742.02 529.078C1738.66 532.945 1733.81 534.879 1727.46 534.879C1721.12 534.879 1716.25 532.945 1712.87 529.078C1709.51 525.191 1707.83 519.83 1707.83 512.994ZM1713.84 512.994C1713.84 518.463 1714.96 522.721 1717.21 525.768C1719.46 528.795 1722.87 530.309 1727.46 530.309C1732.05 530.309 1735.47 528.795 1737.72 525.768C1739.96 522.721 1741.09 518.463 1741.09 512.994C1741.09 507.525 1739.96 503.277 1737.72 500.25C1735.47 497.203 1732.05 495.68 1727.46 495.68C1722.87 495.68 1719.46 497.203 1717.21 500.25C1714.96 503.277 1713.84 507.525 1713.84 512.994ZM1812.63 534C1811.66 534 1811.17 533.463 1811.17 532.389V493.6C1811.17 492.525 1811.66 491.988 1812.63 491.988H1816.38C1817.75 491.988 1818.73 492.477 1819.31 493.453L1837.65 524.186H1837.77C1837.73 523.404 1837.71 522.623 1837.71 521.842V493.6C1837.71 492.525 1838.2 491.988 1839.18 491.988H1841.87C1842.85 491.988 1843.34 492.525 1843.34 493.6V532.389C1843.34 533.463 1842.85 534 1841.87 534H1839.29C1837.93 534 1836.95 533.512 1836.36 532.535L1816.85 499.928H1816.73C1816.77 500.709 1816.79 501.49 1816.79 502.271V532.389C1816.79 533.463 1816.3 534 1815.33 534H1812.63ZM1911.16 534C1910.18 534 1909.7 533.463 1909.7 532.389V493.6C1909.7 492.525 1910.18 491.988 1911.16 491.988H1936.8C1937.87 491.988 1938.41 492.428 1938.41 493.307V495.475C1938.41 496.354 1937.87 496.793 1936.8 496.793H1915.32V509.801H1935.04C1936.11 509.801 1936.65 510.24 1936.65 511.119V513.287C1936.65 514.166 1936.11 514.605 1935.04 514.605H1915.32V529.195H1937.68C1938.75 529.195 1939.29 529.635 1939.29 530.514V532.682C1939.29 533.561 1938.75 534 1937.68 534H1911.16Z" fill="#414141"/>
<defs>
<linearGradient id="paint0_linear_298_2" x1="0" y1="315.5" x2="558" y2="315.5" gradientUnits="userSpaceOnUse">
<stop stop-color="#FF5F15"/>
<stop offset="1" stop-color="#FF991C"/>
</linearGradient>
</defs>
</svg>
